<svg xmlns="http://www.w3.org/2000/svg" xmlns:svg="http://www.w3.org/2000/svg" xmlns:xlink="http://www.w3.org/1999/xlink" id="svg4248" width="16" height="16" version="1.1" viewBox="0 0 16 16" xml:space="preserve"><defs id="defs4252"><linearGradient id="linearGradient1099" x1="32" x2="96" y1="236" y2="236" gradientTransform="translate(604.81684,170.58641)" gradientUnits="userSpaceOnUse" xlink:href="#linearGradient1036"/><linearGradient id="linearGradient1036"><stop id="stop1032" offset="0" style="stop-color:#d5d3cf;stop-opacity:1"/><stop id="stop1034" offset="1" style="stop-color:#f6f5f4;stop-opacity:1"/></linearGradient><radialGradient id="radialGradient1103" cx="-244" cy="-76" r="32" fx="-244" fy="-76" gradientTransform="matrix(0.88333331,0,0,0.88333331,-460.35018,463.11973)" gradientUnits="userSpaceOnUse" xlink:href="#linearGradient1069"/><linearGradient id="linearGradient1069"><stop id="stop1065" offset="0" style="stop-color:#d5d3cf;stop-opacity:1"/><stop id="stop1067-1" offset="1" style="stop-color:#949390;stop-opacity:1"/></linearGradient><linearGradient id="linearGradient1027" x1="64" x2="64" y1="262.5" y2="232" gradientTransform="translate(-470.5864,432.81685)" gradientUnits="userSpaceOnUse" xlink:href="#linearGradient1025"/><linearGradient id="linearGradient1025"><stop id="stop1021" offset="0" style="stop-color:#9a9996;stop-opacity:1"/><stop id="stop1023" offset="1" style="stop-color:#77767b;stop-opacity:1"/></linearGradient><clipPath id="clipPath1609-7" clipPathUnits="userSpaceOnUse"><path id="path1611-5" d="m 252,116 28,-28 v -8 h -36 v 36 z" style="fill:#e74747;stroke:none;stroke-width:.25px;stroke-linecap:butt;stroke-linejoin:miter;stroke-opacity:1"/></clipPath><linearGradient id="linearGradient1697"><stop id="stop1685" offset="0" style="stop-color:#deddda;stop-opacity:1"/><stop style="stop-color:#eeeeec;stop-opacity:1" id="stop1687" offset=".045"/><stop id="stop1689" offset=".091" style="stop-color:#deddda;stop-opacity:1"/><stop style="stop-color:#deddda;stop-opacity:1" id="stop1691" offset=".909"/><stop id="stop1693" offset=".955" style="stop-color:#eeeeec;stop-opacity:1"/><stop id="stop1695" offset="1" style="stop-color:#c0bfbc;stop-opacity:1"/></linearGradient><clipPath id="clipPath1289" clipPathUnits="userSpaceOnUse"><path style="display:inline;opacity:1;vector-effect:none;fill:none;fill-opacity:1;stroke:#000;stroke-width:4;stroke-linecap:round;stroke-linejoin:round;stroke-miterlimit:4;stroke-dasharray:none;stroke-dashoffset:0;stroke-opacity:1;marker:none;marker-start:none;marker-mid:none;marker-end:none;paint-order:normal;enable-background:new" id="path1291" d="m 64,-148 h 64 l 64,-64 64,64 h 192 c 17.728,0 32,14.272 32,32 v 288 c 0,17.728 -14.272,32 -32,32 H 256 l -64,-64 -64,64 H 64 C 46.272,204 32,189.728 32,172 v -288 c 0,-17.728 14.408898,-34.19889 32,-32 z"/></clipPath><linearGradient id="paint3_linear-2-6-5" x2="1" gradientTransform="matrix(0,6,-12,0,-64,209.99687)" gradientUnits="userSpaceOnUse"><stop id="stop91-0-7-4" stop-color="#C01C27"/><stop id="stop93-2-5-7" offset="1" stop-color="#E01B24"/></linearGradient><clipPath id="clipPath1609" clipPathUnits="userSpaceOnUse"><path id="path1611" d="m 252,116 28,-28 v -8 h -36 v 36 z" style="fill:#e74747;stroke:none;stroke-width:.25px;stroke-linecap:butt;stroke-linejoin:miter;stroke-opacity:1"/></clipPath><clipPath id="clipPath1122" clipPathUnits="userSpaceOnUse"><path style="fill:none;stroke:#000;stroke-width:1px;stroke-linecap:butt;stroke-linejoin:miter;stroke-opacity:1" id="path1124" d="m -1147,325 c -1.1614,-17.38465 4.3272,-35.13154 15.1003,-48.82519 10.773,-13.69365 26.7293,-23.20541 43.8989,-26.16874 11.2585,-1.94313 22.9324,-1.17391 34.0008,-4.00607 8.6946,-2.22476 16.8092,-6.67773 23.3559,-12.81667 6.5466,-6.13894 11.5114,-13.95094 14.2899,-22.48471 2.7784,-8.53378 3.3646,-17.77137 1.6872,-26.5879 -1.6774,-8.81654 -5.6149,-17.19347 -11.333,-24.11072 l -118,-10 z"/></clipPath><clipPath id="clipPath1130" clipPathUnits="userSpaceOnUse"><path transform="translate(279.3319,30.54918)" style="fill:none;stroke:#000;stroke-width:1px;stroke-linecap:butt;stroke-linejoin:miter;stroke-opacity:1" id="path1132" d="m -1153,312 c -1.4004,-15.18697 1.7805,-30.7666 9.0221,-44.18915 7.2415,-13.42255 18.5156,-24.63587 31.9771,-31.80478 16.5286,-8.8023 35.875,-11.48599 52.0008,-21.00607 19.3048,-11.39683 32.435,-32.63674 34,-55 l -113,-52 z"/></clipPath><clipPath id="clipPath1138" clipPathUnits="userSpaceOnUse"><path transform="translate(537.64929,32.86167)" style="fill:none;stroke:#000;stroke-width:1px;stroke-linecap:butt;stroke-linejoin:miter;stroke-opacity:1" id="path1140" d="m -1137,222 c -0.2126,4.60594 1.1165,9.2698 3.7253,13.07168 2.6087,3.80189 6.4821,6.71996 10.8561,8.17868 4.374,1.45872 9.2236,1.4497 13.5922,-0.0253 4.3685,-1.47498 8.231,-4.40745 10.8256,-8.21901 3.9947,-5.86842 4.8114,-13.25308 7.0008,-20.00607 2.7069,-8.34922 7.6728,-15.95404 14.2288,-21.78977 6.556,-5.83572 14.6849,-9.8872 23.2915,-11.60852 8.6066,-1.72132 17.6686,-1.10801 25.9647,1.75728 8.2962,2.86529 15.8051,7.97514 21.515,14.64101 l -133,-90 z"/></clipPath><clipPath id="clipPath1134" clipPathUnits="userSpaceOnUse"><path id="path1136" d="m -1149,199 c 5.9468,-7.38454 14.8585,-12.31001 24.275,-13.41673 9.4165,-1.10672 19.2273,1.61829 26.7242,7.4228 8.405,6.50759 13.6671,16.39534 22.0008,22.99393 7.4273,5.88093 17.1377,8.79771 26.5763,7.98292 9.4385,-0.81478 18.5054,-5.3525 24.815,-12.41927 6.3096,-7.06677 9.7952,-16.58777 9.5397,-26.05799 -0.2556,-9.47023 -4.2495,-18.78942 -10.931,-25.50566 l -113,-52 z" style="fill:none;stroke:#000;stroke-width:1px;stroke-linecap:butt;stroke-linejoin:miter;stroke-opacity:1" transform="translate(419.64929,26.36167)"/></clipPath><clipPath id="clipPath1126" clipPathUnits="userSpaceOnUse"><path id="path1128" d="m -1129,309 c -9.3556,-6.43987 -16.3087,-16.28877 -19.2453,-27.26036 -2.9366,-10.97159 -1.8328,-22.97695 3.0551,-33.22914 4.8879,-10.2522 13.5204,-18.66813 23.8934,-23.29413 10.373,-4.62599 22.4025,-5.42455 33.296,-2.2103 9.6306,2.84161 18.2387,8.6437 28.0008,10.99393 9.2555,2.22826 19.2727,1.14385 27.8369,-3.01349 8.5643,-4.15734 15.6129,-11.35721 19.5874,-20.00776 3.9746,-8.65055 4.8461,-18.68855 2.4219,-27.89465 -2.4243,-9.20609 -8.1266,-17.513 -15.8462,-23.0841 l -118,-10 z" style="fill:none;stroke:#000;stroke-width:1px;stroke-linecap:butt;stroke-linejoin:miter;stroke-opacity:1" transform="translate(142.91562,9.58034)"/></clipPath><clipPath id="clipPath904" clipPathUnits="userSpaceOnUse"><rect style="opacity:1;fill:#949390;fill-opacity:1;stroke:none;stroke-width:16;stroke-linecap:round;stroke-linejoin:round;stroke-miterlimit:4;stroke-dasharray:none;stroke-dashoffset:11.2;stroke-opacity:1" id="rect906" width="96" height="48" x="208" y="4"/></clipPath><linearGradient id="linearGradient6597"><stop id="stop6599" offset="0" style="stop-color:#b5ae9c;stop-opacity:1"/><stop style="stop-color:#8e8469;stop-opacity:1" id="stop6605" offset=".342"/><stop style="stop-color:#39352a;stop-opacity:1" id="stop6601" offset=".642"/><stop id="stop6603" offset="1" style="stop-color:#5c5443;stop-opacity:1"/></linearGradient><linearGradient id="linearGradient6275"><stop id="stop6277" offset="0" style="stop-color:#c0baab;stop-opacity:1"/><stop id="stop6279" offset="1" style="stop-color:#bfb9a9;stop-opacity:.17647059"/></linearGradient><clipPath id="clipPath6405" clipPathUnits="userSpaceOnUse"><path id="path6407" d="m 78.352199,58.820687 c 0,0 14.636091,30.305885 48.876311,29.450913 71.75463,-1.807591 84.33717,-39.392671 86.13735,-44.815451 1.80018,-5.422779 4.55468,-4.601369 5.19151,0.410374 C 241.95974,257.16247 56.148281,165.6455 49.549281,129.31681 78.953017,119.97125 76.952106,109.18393 77.452106,97.683932 Z" style="display:inline;overflow:visible;visibility:visible;fill:none;fill-opacity:1;fill-rule:evenodd;stroke:#000;stroke-width:1;stroke-linecap:butt;stroke-linejoin:miter;stroke-miterlimit:10;stroke-dasharray:none;stroke-dashoffset:0;stroke-opacity:1;marker:none;marker-start:none;marker-mid:none;marker-end:none"/></clipPath><linearGradient id="linearGradient6457"><stop style="stop-color:#5b676b;stop-opacity:1" id="stop6459" offset="0"/><stop id="stop6463" offset=".816" style="stop-color:#000;stop-opacity:1"/><stop style="stop-color:#606e73;stop-opacity:1" id="stop6461" offset="1"/></linearGradient><linearGradient id="linearGradient6193"><stop style="stop-color:#fff;stop-opacity:1" id="stop6195" offset="0"/><stop id="stop6197" offset=".833" style="stop-color:#c3c3c3;stop-opacity:1"/><stop style="stop-color:#f0f0f0;stop-opacity:1" id="stop6199" offset="1"/></linearGradient><linearGradient id="linearGradient5596"><stop style="stop-color:#000;stop-opacity:0" id="stop5598" offset="0"/><stop id="stop5604" offset=".881" style="stop-color:#000;stop-opacity:0"/><stop style="stop-color:#000;stop-opacity:1" id="stop5600" offset="1"/></linearGradient><linearGradient id="linearGradient6367"><stop id="stop6369" offset="0" style="stop-color:#596569;stop-opacity:1"/><stop id="stop6371" offset="1" style="stop-color:#2e3436;stop-opacity:1"/></linearGradient><radialGradient id="radialGradient1462" cx="173.948" cy="99.426" r="12.374" fx="173.948" fy="99.426" gradientUnits="userSpaceOnUse" xlink:href="#linearGradient6367"/><clipPath id="clipPath7948" clipPathUnits="userSpaceOnUse"><path id="path7950" d="m 126,141.25 c 13.63429,-0.0287 30.69591,-3.48571 43.875,-22 L 254.5,182 l 3.5,78.5 -99,-51 z" style="display:inline;overflow:visible;visibility:visible;opacity:.578313;fill:#000;fill-opacity:1;fill-rule:evenodd;stroke:none;stroke-width:20;stroke-linecap:round;stroke-linejoin:miter;stroke-miterlimit:4;stroke-dasharray:none;stroke-dashoffset:0;stroke-opacity:1;marker:none;marker-start:none;marker-mid:none;marker-end:none;enable-background:accumulate"/></clipPath><linearGradient id="linearGradient6963"><stop id="stop6965" offset="0" style="stop-color:#696969;stop-opacity:1"/><stop id="stop6967" offset="1" style="stop-color:#000;stop-opacity:1"/></linearGradient><linearGradient id="linearGradient6536"><stop id="stop6538" offset="0" style="stop-color:#d87711;stop-opacity:1"/><stop style="stop-color:#f3ae66;stop-opacity:1" id="stop6540" offset=".242"/><stop id="stop6542" offset=".621" style="stop-color:#713e08;stop-opacity:1"/><stop id="stop6544" offset="1" style="stop-color:#e07c12;stop-opacity:1"/></linearGradient><linearGradient id="linearGradient6939"><stop id="stop6941" offset="0" style="stop-color:#bdbdbd;stop-opacity:1"/><stop style="stop-color:#e2e2e2;stop-opacity:1" id="stop6947" offset=".333"/><stop id="stop6949" offset=".667" style="stop-color:#a3a3a3;stop-opacity:1"/><stop id="stop6943" offset="1" style="stop-color:#ddd;stop-opacity:1"/></linearGradient><filter id="c" width="1.073" height="1.071" x="-.036" y="-.036" style="color-interpolation-filters:sRGB"><feGaussianBlur id="feGaussianBlur13" stdDeviation="1.279"/></filter><filter id="b" width="1.113" height="1.127" x="-.057" y="-.064" style="color-interpolation-filters:sRGB"><feGaussianBlur id="feGaussianBlur10" stdDeviation="7.406"/></filter><linearGradient id="a" x1="479.79" x2="529.53" y1="233.23" y2="276.31" gradientUnits="userSpaceOnUse"><stop style="stop-color:#fff" id="stop2" offset="0"/><stop style="stop-color:#fff;stop-opacity:0" id="stop4" offset="1"/></linearGradient><clipPath id="d"><path d="m 503.51,222.01 c -20.04,0 -36.286,16.246 -36.286,36.286 0,1.9247 0.15113,3.8139 0.43979,5.6575 1.4023,6.7619 6.6874,9.388 6.6874,9.388 1.1074,0.90879 2.4838,1.8364 4.0732,2.7523 l -0.13076,-0.004 c 0,0 3.3315,18.563 9.4439,18.41 4.6229,-0.11575 8.2504,-9.4523 14.128,-9.2645 5.8724,0.18755 8.2564,9.1509 14.1,9.2129 3.3748,0.0358 6.3071,-5.7438 8.1597,-10.528 0.58645,-0.11985 1.1699,-0.24997 1.7493,-0.39224 5.5562,5.2542 18.398,10.599 23.871,12.412 0.0748,-0.0397 0.13497,-0.0861 0.17672,-0.14056 1.3957,-1.8189 -7.9538,-16.01 -12.983,-23.371 1.8385,-4.3435 2.8556,-9.1191 2.8556,-14.132 0,-20.04 -16.246,-36.286 -36.286,-36.286 z" style="fill:#009688;fill-rule:evenodd" id="path7"/></clipPath><radialGradient id="Degradado_sin_nombre_16" cx="382.44" cy="-1232.42" r="72.43" gradientTransform="matrix(0.69,0,0,-0.22,-198.57,-153.98)" gradientUnits="userSpaceOnUse"><stop id="stop2-7" offset="0" stop-color="#686868" stop-opacity=".5"/><stop id="stop4-5" offset="1" stop-color="#686868" stop-opacity="0"/></radialGradient><linearGradient id="Degradado_sin_nombre_100" x1="64" x2="64" y1="121.4" y2="1.4" gradientUnits="userSpaceOnUse"><stop id="stop7" offset="0" stop-color="#0e141f"/><stop id="stop9" offset="1" stop-color="#273445"/></linearGradient><linearGradient id="Degradado_sin_nombre_3" x1="-397.52" x2="-397.52" y1="359.85" y2="331.01" gradientTransform="matrix(4.16,0,0,-4.16,1719.25,1500.05)" gradientUnits="userSpaceOnUse"><stop id="stop12" offset="0" stop-color="#fff"/><stop id="stop14" offset=".42" stop-color="#fff" stop-opacity=".24"/><stop id="stop16" offset=".82" stop-color="#fff" stop-opacity=".16"/><stop id="stop18" offset="1" stop-color="#fff" stop-opacity=".39"/></linearGradient><radialGradient id="Degradado_sin_nombre_80" cx="63.97" cy="62.79" r="34.62" gradientTransform="matrix(0.92,0,0,0.92,165.99813,509.69325)" gradientUnits="userSpaceOnUse"><stop id="stop21" offset=".51" stop-color="#fafafa"/><stop id="stop23" offset="1" stop-color="#d4d4d4"/></radialGradient><linearGradient id="Degradado_sin_nombre_56" x1="70.12" x2="57.88" y1="69.12" y2="56.88" gradientUnits="userSpaceOnUse"><stop id="stop26" offset="0" stop-color="#3689e6"/><stop id="stop28" offset="1" stop-color="#68b723"/></linearGradient><linearGradient id="Degradado_sin_nombre_56-2" x1="69.3" x2="58.7" y1="68.3" y2="57.7" gradientTransform="translate(160.63813,504.24325)" xlink:href="#Degradado_sin_nombre_56"/><clipPath id="clipPath1289-7" clipPathUnits="userSpaceOnUse"><path id="path1291-1" d="m 64,-148 h 64 l 64,-64 64,64 h 192 c 17.728,0 32,14.272 32,32 v 288 c 0,17.728 -14.272,32 -32,32 H 256 l -64,-64 -64,64 H 64 C 46.272,204 32,189.728 32,172 v -288 c 0,-17.728 14.408898,-34.19889 32,-32 z" style="display:inline;opacity:1;vector-effect:none;fill:none;fill-opacity:1;stroke:#000;stroke-width:4;stroke-linecap:round;stroke-linejoin:round;stroke-miterlimit:4;stroke-dasharray:none;stroke-dashoffset:0;stroke-opacity:1;marker:none;marker-start:none;marker-mid:none;marker-end:none;paint-order:normal;enable-background:new"/></clipPath><clipPath id="clipPath1609-7-7" clipPathUnits="userSpaceOnUse"><path id="path1611-5-5" d="m 252,116 28,-28 v -8 h -36 v 36 z" style="fill:#e74747;stroke:none;stroke-width:.25px;stroke-linecap:butt;stroke-linejoin:miter;stroke-opacity:1"/></clipPath><clipPath id="clipPath1521" clipPathUnits="userSpaceOnUse"><rect id="rect1523" width="112" height="82" x="-120" y="-282" clip-path="none" rx="8" ry="8" style="opacity:1;vector-effect:none;fill:#f6f5f4;fill-opacity:1;stroke:none;stroke-width:13.7188;stroke-linecap:butt;stroke-linejoin:miter;stroke-miterlimit:4;stroke-dasharray:none;stroke-dashoffset:0;stroke-opacity:1;marker:none;marker-start:none;marker-mid:none;marker-end:none;paint-order:normal" transform="scale(-1)"/></clipPath><clipPath id="clipPath2024" clipPathUnits="userSpaceOnUse"><rect style="opacity:1;vector-effect:none;fill:#63452c;fill-opacity:1;stroke:none;stroke-width:4;stroke-linecap:round;stroke-linejoin:round;stroke-miterlimit:4;stroke-dasharray:none;stroke-dashoffset:0;stroke-opacity:1" id="rect2026" width="74" height="98" x="6" y="196"/></clipPath><linearGradient id="linearGradient5299"><stop style="stop-color:#77767b;stop-opacity:1" id="stop5291" offset="0"/><stop id="stop5293" offset=".733" style="stop-color:#9a9996;stop-opacity:1"/><stop style="stop-color:#f6f5f4;stop-opacity:1" id="stop5295" offset=".833"/><stop id="stop1949" offset=".933" style="stop-color:#adacaa;stop-opacity:1"/><stop style="stop-color:#77767b;stop-opacity:1" id="stop5297" offset="1"/></linearGradient><linearGradient id="linearGradient1109" x1="58" x2="88" y1="202" y2="202" gradientTransform="translate(4,8)" gradientUnits="userSpaceOnUse" xlink:href="#linearGradient5299"/><filter id="filter4520" width="1.12" height="1.12" x="-.06" y="-.06" style="color-interpolation-filters:sRGB"><feGaussianBlur id="feGaussianBlur100" stdDeviation="1.2"/></filter><linearGradient id="linearGradient4631" x1="147.31" x2="185.85" y1="830.88" y2="869.42" gradientTransform="translate(351.45,336.28)" gradientUnits="userSpaceOnUse"><stop style="stop-color:#f2f2f2;stop-opacity:1" id="stop83" offset="0"/><stop style="stop-color:gray;stop-opacity:.8" id="stop85" offset="1"/></linearGradient><clipPath id="clipPath2024-1" clipPathUnits="userSpaceOnUse"><path style="opacity:1;fill:url(#radialGradient2028);fill-opacity:1;stroke:none;stroke-width:29.4912;stroke-linecap:square;stroke-linejoin:round;stroke-miterlimit:4;stroke-dasharray:none;stroke-dashoffset:0;stroke-opacity:1" id="path2026" d="m 161.04818,-12.859367 c -26.22266,-0.02143 -48.34317,-17.698761 -51.64981,-41.273807 3.25376,-23.616237 25.38867,-41.348909 51.64981,-41.377599 26.22267,0.02143 48.34318,17.698766 51.64982,41.273789 -3.25377,23.616237 -25.38868,41.348903 -51.64982,41.377617 z"/></clipPath><clipPath id="clipPath2014" clipPathUnits="userSpaceOnUse"><path style="opacity:1;fill:url(#radialGradient2018);fill-opacity:1;stroke:none;stroke-width:29.4912;stroke-linecap:square;stroke-linejoin:round;stroke-miterlimit:4;stroke-dasharray:none;stroke-dashoffset:0;stroke-opacity:1" id="path2016" d="m 161.04818,-12.859367 c -26.22266,-0.02143 -48.34317,-17.698761 -51.64981,-41.273807 3.25376,-23.616237 25.38867,-41.348909 51.64981,-41.377599 26.22267,0.02143 48.34318,17.698766 51.64982,41.273789 -3.25377,23.616237 -25.38868,41.348903 -51.64982,41.377617 z"/></clipPath><clipPath id="clipPath2564" clipPathUnits="userSpaceOnUse"><path style="fill:#ed333b;fill-opacity:1;stroke:none;stroke-width:1px;stroke-linecap:butt;stroke-linejoin:miter;stroke-opacity:1" id="path2566" d="m 120,188 c -8,20 -32,36 -48,36 v 12 c 16,0 40,16 48,36 h 4 v -84 z"/></clipPath><clipPath id="clipPath2578" clipPathUnits="userSpaceOnUse"><path clip-path="none" style="fill:url(#radialGradient2582);fill-opacity:1;stroke:none;stroke-width:1px;stroke-linecap:butt;stroke-linejoin:miter;stroke-opacity:1" id="path2580" d="m 120,268.34086 c -8,-20 -32,-36 -48,-36 v -12 c 16,0 40,-16 48,-36 h 4 v 84 z"/></clipPath></defs><g id="g9025" transform="translate(-160.48026,-171.8574)" style="display:inline;fill:#000;enable-background:new"><path id="path6874" fill="#222" d="m 168.8565,174.68319 1.83462,1.97446 2.58711,-0.46615 -1.22197,2.44394 1.22197,2.44394 -2.58711,-0.46615 -1.83462,1.97446 -0.37624,-2.73029 -2.35404,-1.22196 2.35404,-1.22197 z m -2.13761,5.93337 c 0.34628,0 0.65927,0.20976 0.78912,0.53274 0.12986,0.31964 0.0533,0.68923 -0.19645,0.92896 l -5.10096,5.10097 c -0.2131,0.22308 -0.52941,0.31298 -0.82908,0.2364 -0.29633,-0.0765 -0.53274,-0.31299 -0.60931,-0.60932 -0.0765,-0.29967 0.0133,-0.61598 0.23307,-0.83241 l 5.10096,-5.10096 c 0.15983,-0.16315 0.38291,-0.25638 0.61265,-0.25638 z m 0,0" style="fill:#000;stroke-width:.852381"/><path id="rect7190" style="fill:#000" d="m 164.53125,172.375 c -1.55812,0 -2.8125,1.25438 -2.8125,2.8125 v 8.37695 l 2.0293,-2.03125 v -2.78125 l -0.22657,-0.11718 0.22657,-0.11719 v -2.10352 c 0,-1.1053 0.89079,-1.99609 1.99609,-1.99609 h 1.93945 l 0.28125,-2.04297 z m 3.82031,0 1.89649,2.04297 h 1.41406 c 0.55565,0 1.05666,0.22552 1.41797,0.58984 l 2.3418,-0.42187 -1.76368,3.53125 v 1.03906 l 1.76172,3.5293 -1.76172,-0.31836 v 0.0312 c 0,1.1053 -0.89079,1.99609 -1.99609,1.99609 h -2.8457 l -0.80079,0.86328 -0.11914,-0.86328 h -1.20507 l -2.04297,2.04297 h 8.22656 c 1.55812,0 2.8125,-1.25438 2.8125,-2.8125 v -8.4375 c 0,-1.55812 -1.25438,-2.8125 -2.8125,-2.8125 z"/></g></svg>